#!OML:ASF F:\VICON\USERDATA\INSTALL\rory3\rory3.ASF
:FULLY-SPECIFIED
:DEGREES
361
root 0.251969 17.7966 2.87768 3.16682 6.32384 7.35005
lowerback 4.91495 -1.163 -10.4609
upperback 0.361229 -2.08538 1.67622
thorax -1.95096 -0.949472 7.79154
lowerneck -15.9197 -4.63251 -14.4084
upperneck 30.1586 -4.3177 6.1074
head 13.296 -2.74974 4.17851
rclavicle 3.08116e-015 -1.66979e-014
rhumerus -38.4676 -21.6843 -68.3141
rradius 27.857
rwrist -10.9184
rhand -11.0767 18.2824
rfingers 7.12502
rthumb 14.9466 -11.1583
lclavicle 3.08116e-015 -1.66979e-014
lhumerus -34.0067 4.23015 81.15
lradius 36.9675
lwrist -4.79831
lhand -0.0496716 33.2597
lfingers 7.12502
lthumb 25.5428 61.5673
rfemur -31.6526 -3.60892 11.5158
rtibia 27.7237
rfoot -13.8511 -12.2645
rtoes 14.5994
lfemur 5.18892 -3.55219 -31.0384
ltibia 18.0712
lfoot -14.1256 -9.52231
ltoes -1.72725
362
root 0.241343 17.799 3.04867 3.44447 6.64772 7.25648
lowerback 4.72634 -1.2774 -10.3941
upperback 0.303914 -2.21546 1.69932
thorax -1.87926 -1.01679 7.77846
lowerneck -15.9414 -4.67865 -14.4706
upperneck 30.1319 -4.40831 6.2493
head 13.3059 -2.77723 4.23063
rclavicle -5.76476e-015 -1.59028e-014
rhumerus -38.6954 -21.9945 -68.1741
rradius 27.6651
rwrist -10.6818
rhand -10.9206 18.1826
rfingers 7.12502
rthumb 15.097 -11.2469
lclavicle -5.76476e-015 -1.59028e-014
lhumerus -33.771 3.82392 81.1219
lradius 37.2274
lwrist -4.92208
lhand 0.4148 33.6725
lfingers 7.12502
lthumb 25.9876 61.9156
rfemur -31.5472 -2.37916 11.0748
rtibia 25.0827
rfoot -14.6217 -13.3594
rtoes 15.3353
lfemur 6.08685 -3.47673 -30.7207
ltibia 16.951
lfoot -13.8526 -9.93514
ltoes -2.9061
363
root 0.230632 17.8 3.21895 3.6825 6.96135 7.31463
lowerback 4.59025 -1.36988 -10.4996
upperback 0.274529 -2.33079 1.68389
thorax -1.80588 -1.07668 7.82279
lowerneck -16.0481 -4.73928 -14.3694
upperneck 30.1832 -4.49662 6.2023
head 13.3575 -2.81034 4.18038
rclavicle -1.76918e-014 3.65764e-014
rhumerus -38.8413 -22.2153 -68.1065
rradius 27.621
rwrist -10.5776
rhand -10.7744 17.9551
rfingers 7.12502
rthumb 15.2378 -11.4637
lclavicle -1.76918e-014 3.65764e-014
lhumerus -33.4558 3.43715 81.1211
lradius 37.4669
lwrist -4.78527
lhand 0.483431 33.7789
lfingers 7.12502
lthumb 26.0533 62.0123
rfemur -31.4395 -1.26747 10.4596
rtibia 22.8142
rfoot -15.3262 -14.4109
rtoes 14.509
lfemur 6.93066 -3.64173 -30.6256
ltibia 15.9448
lfoot -13.3949 -10.2942
ltoes -2.14638
364
root 0.237142 17.8005 3.42628 3.63579 7.61856 7.53525
lowerback 4.30498 -1.61339 -10.6062
upperback 0.617608 -2.61273 1.61899
thorax -1.22234 -1.26587 7.8039
lowerneck -16.9967 -4.88483 -14.1987
upperneck 30.453 -4.56727 6.05781
head 13.6779 -2.8354 4.08187
rclavicle -1.49089e-014 1.51076e-014
rhumerus -38.5016 -22.5371 -68.1678
rradius 27.4619
rwrist -10.3246
rhand -10.6614 17.8683
rfingers 7.12502
rthumb 15.3467 -11.5422
lclavicle -1.49089e-014 1.51076e-014
lhumerus -32.8221 3.24767 81.1387
lradius 37.8548
lwrist -4.33041
lhand 0.0838313 33.7275
lfingers 7.12502
lthumb 25.6707 62.0167
rfemur -30.8498 -1.47002 9.95118
rtibia 21.0701
rfoot -15.9779 -14.5286
rtoes 11.7097
lfemur 8.15626 -4.10631 -30.8141
ltibia 15.1286
lfoot -12.8927 -10.7744
ltoes 0.000810074
365
root 0.231542 17.7898 3.61855 3.62105 8.15031 7.70104
lowerback 4.36577 -1.7703 -10.7585
upperback 0.451985 -2.84453 1.6018
thorax -1.37522 -1.36505 7.88737
lowerneck -16.4487 -4.85558 -14.4063
upperneck 30.3934 -4.59908 6.21427
head 13.5494 -2.8588 4.17787
rclavicle -1.09332e-015 2.14687e-014
rhumerus -39.1202 -22.3905 -67.8719
rradius 27.3589
rwrist -10.4207
rhand -10.6676 17.7778
rfingers 7.12502
rthumb 15.3407 -11.6332
lclavicle -1.09332e-015 2.14687e-014
lhumerus -33.1352 2.90073 81.1877
lradius 38.2081
lwrist -4.11079
lhand -0.315076 33.4594
lfingers 7.12502
lthumb 25.2886 61.8032
rfemur -30.5019 -1.37766 9.56469
rtibia 19.8875
rfoot -16.6989 -15.0072
rtoes 8.55043
lfemur 9.09554 -4.50261 -30.8877
ltibia 14.6711
lfoot -12.524 -11.1227
ltoes 0.71058
366
root 0.217611 17.7689 3.78596 3.72856 8.57972 7.82063
lowerback 4.46089 -1.8778 -10.9393
upperback 0.390391 -3.01081 1.60131
thorax -1.44867 -1.44016 8.00195
lowerneck -16.1409 -4.8282 -14.563
upperneck 30.2056 -4.64515 6.48574
head 13.4197 -2.86039 4.30394
rclavicle -6.36111e-015 1.98785e-014
rhumerus -39.3738 -22.4884 -67.7211
rradius 27.2147
rwrist -10.3508
rhand -10.7249 17.6793
rfingers 7.12502
rthumb 15.2855 -11.7359
lclavicle -6.36111e-015 1.98785e-014
lhumerus -33.1256 2.61415 81.2365
lradius 38.6617
lwrist -3.97897
lhand -0.488322 33.1649
lfingers 7.12502
lthumb 25.1226 61.532
rfemur -30.5171 -1.19622 9.31204
rtibia 19.3473
rfoot -17.3699 -15.5168
rtoes 6.70537
lfemur 9.66417 -4.85245 -30.8515
ltibia 14.5039
lfoot -12.2529 -11.4036
ltoes 0.614651
367
root 0.202035 17.7485 3.94949 3.80897 8.9157 7.68721
lowerback 4.60812 -1.95547 -10.874
upperback 0.436975 -3.1249 1.65303
thorax -1.45789 -1.49914 8.02989
lowerneck -16.2829 -4.81895 -14.5523
upperneck 30.1332 -4.64862 6.6075
head 13.4211 -2.84044 4.34813
rclavicle 1.68967e-015 -1.03368e-014
rhumerus -39.374 -22.9569 -67.547
rradius 26.9914
rwrist -9.88624
rhand -10.4893 17.6439
rfingers 7.12502
rthumb 15.5124 -11.7538
lclavicle 1.68967e-015 -1.03368e-014
lhumerus -32.947 2.39413 81.251
lradius 39.2825
lwrist -3.68064
lhand -0.603505 33.188
lfingers 7.12502
lthumb 25.0122 61.5705
rfemur -30.6149 -1.4756 9.62592
rtibia 19.3375
rfoot -17.5514 -15.379
rtoes 5.58988
lfemur 10.0262 -5.07944 -30.5223
ltibia 14.6906
lfoot -12.1863 -11.662
ltoes -0.219165
368
root 0.190061 17.7271 4.1205 3.73022 9.1634 7.38789
lowerback 4.95017 -2.00456 -10.6248
upperback 0.423067 -3.21496 1.76252
thorax -1.65241 -1.53348 8.02672
lowerneck -16.2635 -4.77576 -14.4355
upperneck 30.0234 -4.56613 6.43971
head 13.3513 -2.80929 4.2702
rclavicle 3.4191e-014 1.59028e-015
rhumerus -39.3604 -23.333 -67.2943
rradius 26.6502
rwrist -9.57115
rhand -10.2811 17.3416
rfingers 7.12502
rthumb 15.713 -12.0405
lclavicle 3.4191e-014 1.59028e-015
lhumerus -32.8471 2.27366 81.2629
lradius 39.5658
lwrist -3.37137
lhand -0.774552 33.1452
lfingers 7.12502
lthumb 24.8483 61.5504
rfemur -30.6428 -2.30953 10.3913
rtibia 19.8218
rfoot -16.8572 -14.4596
rtoes 5.59322
lfemur 10.5425 -5.20206 -30.0511
ltibia 14.9999
lfoot -12.3704 -11.8197
ltoes -2.83067
